<?xml version="1.0" encoding="utf-8"?>
<!-- Generator: Adobe Illustrator 24.0.1, SVG Export Plug-In . SVG Version: 6.00 Build 0)  -->
<svg version="1.1" id="Camada_1" xmlns="http://www.w3.org/2000/svg" xmlns:xlink="http://www.w3.org/1999/xlink" x="0px" y="0px"
	 viewBox="0 0 1366 768" style="enable-background:new 0 0 1366 768;" xml:space="preserve">
<style type="text/css">
	.st0{fill:#8FCAEA;}
	.st1{fill:#FEFEFE;}
	.st2{fill:#9CA6EB;}
	.st3{fill:#F4F4F4;}
	.st4{fill:#C1C7F2;}
	.st5{fill:#E3E6F9;}
	.st6{fill:#DDE0F8;}
</style>
<g>
	<g>
		<path class="st0" d="M0.07,543.52c0-180.05,0.01-360.1-0.06-540.16C0.01,0.84,0.34,0,3.19,0C456.39,0.08,909.6,0.08,1362.8,0
			c2.83,0,3.19,0.81,3.19,3.35c-0.06,154.45-0.06,308.9-0.06,463.35c-1.22,3.81-3.77,6.81-6.2,9.84
			c-11.4,14.21-24.56,26.63-38.88,37.85c-36.14,28.31-76.68,48.33-119.81,63.41c-44.26,15.47-89.85,25.33-136.31,31.24
			c-18.2,2.31-36.44,4.27-54.79,5.31c-17.38,0.99-34.74,2-52.15,2.12c-5.9,0.04-11.81,0.8-17.74,0.6
			c-23.34-0.77-46.55-2.51-69.56-6.86c-37.4-7.07-73.52-18.43-109.25-31.29c-38.26-13.77-75.89-29.18-113.9-43.58
			c-40.24-15.25-80.76-29.71-122.22-41.33c-39.55-11.09-79.66-19.52-120.42-24.67c-14.21-1.8-28.5-2.8-42.78-3.91
			c-22.02-1.7-44.05-1.55-66.06-1.1c-15.59,0.31-31.19,1.53-46.74,3.17c-23.48,2.48-46.78,5.94-69.88,10.73
			c-45.3,9.41-89.22,23.17-131.51,41.97c-14.84,6.59-29.37,13.84-43.42,22.02C3.02,542.94,1.8,544.12,0.07,543.52z"/>
		<path class="st1" d="M921.32,675.82c-306.01,0-612.03,0-918.04,0.07c-2.67,0-3.28-0.6-3.27-3.27c0.12-25.49,0.07-50.98,0.07-76.47
			c2.25-3.09,5.72-4.56,8.82-6.47c24.48-15.11,50.38-27.34,77.04-38.08c43.64-17.57,88.73-29.79,135.16-37.12
			c15.68-2.48,31.45-4.2,47.28-5.49c20.8-1.69,41.62-2.49,62.47-1.96c15.02,0.38,30.02,1.28,45,2.65
			c23.27,2.13,46.37,5.39,69.28,9.94c30.61,6.08,60.73,14.03,90.45,23.56c37.97,12.18,75.07,26.63,111.82,42.01
			c40.02,16.74,79.67,34.38,120.03,50.32c27.92,11.03,56.28,20.75,85.44,27.98c19.57,4.86,39.38,8.49,59.53,10.06
			c2.91,0.23,5.93,0.12,8.74,1.22C921.48,675.08,921.55,675.42,921.32,675.82z"/>
		<path class="st0" d="M1365.93,480.92c0,5.45,0,10.91,0,16.36c-0.71,3.21-2.61,5.77-4.5,8.35c-16.32,22.35-36.55,40.66-58.82,56.83
			c-33.16,24.09-69.56,41.92-108.04,55.71c-43.05,15.43-87.41,25.31-132.65,31.35c-17.72,2.36-35.5,4.24-53.37,5.35
			c-17.02,1.06-34.03,1.87-51.09,2.16c-7.33,0.12-14.67,0.74-22.01,0.53c-25.04-0.72-49.82-3.56-74.31-9.06
			c-36.08-8.1-70.9-20.08-105.27-33.53c-35.22-13.78-70-28.62-105-42.92c-27.1-11.07-54.35-21.8-82.06-31.3
			c-26.36-9.03-52.9-17.49-79.95-24.25c-30.5-7.63-61.32-13.67-92.56-17.33c-12.34-1.45-24.74-2.34-37.15-3.18
			c-15.27-1.04-30.52-1.24-45.8-1.3c-20.75-0.08-41.4,1.27-62.03,3.4c-19.47,2.01-38.82,4.79-58,8.65
			c-34.81,7.01-68.95,16.45-102.12,29.21c-30.26,11.64-59.58,25.25-87.28,42.21c-1.15,0.7-2.26,1.91-3.85,0.93c0-6.4,0-12.8,0-19.21
			c0.92-1.8,2.64-2.66,4.26-3.64c26.47-16.03,54.63-28.49,83.55-39.28c46.28-17.27,93.98-28.96,142.96-35.41
			c16.2-2.14,32.48-3.56,48.8-4.54c15.38-0.92,30.76-1.74,46.15-1.27c13.72,0.42,27.43,1.1,41.14,1.93
			c21.08,1.28,41.99,3.88,62.81,7.23c37.99,6.11,75.21,15.5,112,26.7c53.83,16.39,105.89,37.56,158.04,58.47
			c34.66,13.9,69.36,27.73,104.94,39.14c29.85,9.57,60.14,17.32,91.3,21.27c15.18,1.92,30.43,2.71,45.74,2.4
			c7.7-0.16,15.42,0.19,23.12-0.08c13.36-0.47,26.72-0.96,40.07-1.93c14.29-1.05,28.57-2.1,42.81-3.68
			c43.11-4.78,85.52-12.97,127.04-25.64c24.76-7.55,48.86-16.76,72.19-28.04c27.23-13.17,52.76-28.95,76.09-48.23
			c14.87-12.28,28.18-26.05,39.45-41.73C1363.37,482.39,1363.94,480.69,1365.93,480.92z"/>
		<path class="st2" d="M0.07,579.08c6.65-3.8,13.24-7.71,19.96-11.38c13.92-7.61,28.13-14.63,42.65-21.06
			c19.81-8.76,40.01-16.47,60.66-22.95c26.91-8.44,54.22-15.3,82.03-20.16c13.8-2.41,27.64-4.53,41.54-6.08
			c9.11-1.02,18.29-1.71,27.46-2.43c20.33-1.6,40.68-1.52,61.01-1.19c14.37,0.24,28.72,1.41,43.06,2.59
			c16.09,1.32,32.07,3.48,47.98,5.98c14.65,2.31,29.17,5.42,43.66,8.64c30.12,6.7,59.6,15.55,88.84,25.35
			c22.3,7.47,44.29,15.75,66.19,24.32c21.24,8.31,42.24,17.18,63.35,25.81c24.39,9.97,48.65,20.25,73.23,29.74
			c27.79,10.73,55.95,20.41,84.83,27.8c16.89,4.32,33.97,7.78,51.32,9.75c9.73,1.11,19.46,1.86,29.25,2.28
			c7.21,0.31,14.42,0.59,21.62,0.45c14.65-0.28,29.3-0.69,43.93-1.43c12.59-0.64,25.19-1.45,37.7-2.87
			c15.89-1.81,31.77-3.64,47.6-6.08c24.14-3.72,47.95-8.81,71.56-14.99c23.81-6.23,47.04-14.18,69.77-23.59
			c24.45-10.11,47.81-22.32,69.87-36.89c13.59-8.98,26.5-18.9,38.65-29.81c13.43-12.06,25.57-25.19,35.77-40.1
			c0.8-1.16,1.58-2.33,2.37-3.5c0,4.98,0,9.96,0,14.94c-3.24,7.92-8.8,14.28-14.16,20.73c-24.25,29.18-54.01,51.66-86.66,70.56
			c-28.02,16.22-57.65,28.86-88.34,38.97c-37.47,12.35-75.86,20.76-114.99,25.93c-15.97,2.11-31.98,3.88-48.01,5.35
			c-8.48,0.77-16.99,1.34-25.52,1.34c-8.05,0-16.1,0.61-24.16,0.36c-3.2,0-6.39,0-9.58,0c-8.39,0-16.78,0-25.17,0
			c-2.69-0.13-5.39,0.3-8.06-0.27c-27.5-1.5-54.39-6.59-80.88-13.9c-30.84-8.51-60.86-19.41-90.36-31.71
			c-38.23-15.94-76.28-32.32-114.53-48.23c-30.93-12.86-62.22-24.78-94.04-35.28c-34.51-11.38-69.61-20.53-105.32-27.22
			c-17.53-3.28-35.2-5.73-52.96-7.44c-14.01-1.36-28.04-2.23-42.1-2.93c-13.99-0.7-27.97-0.81-41.92-0.3
			c-14.99,0.55-29.96,1.67-44.92,3.12c-37.76,3.67-74.77,11.09-111.17,21.6c-24.57,7.1-48.6,15.76-72.07,25.97
			c-23.06,10.03-45.45,21.3-66.7,34.8c-1.37,0.87-2.45,2.3-4.22,2.49C0.07,590.46,0.07,584.77,0.07,579.08z"/>
		<path class="st3" d="M1365.93,480.92c-4.47,5.17-8.26,10.88-12.7,16.09c-7.16,8.41-14.83,16.26-23.12,23.53
			c-12.38,10.86-25.5,20.74-39.36,29.64c-27.81,17.85-57.45,31.92-88.47,43.28c-29.83,10.92-60.47,18.81-91.52,25.15
			c-17.34,3.54-34.84,6.14-52.43,8.26c-17.83,2.15-35.67,3.86-53.59,4.99c-8.61,0.54-17.23,0.93-25.84,1.39
			c-18.36,0.99-36.72,0.85-55.07,0.48c-14.52-0.29-28.94-2.16-43.29-4.54c-34.52-5.73-67.89-15.74-100.8-27.34
			c-29.12-10.26-57.77-21.8-86.42-33.3c-40.51-16.25-81.01-32.51-122.4-46.49c-40.47-13.67-81.53-25.1-123.49-33.11
			c-18.3-3.49-36.73-6.35-55.31-8.15c-13.06-1.27-26.12-2.22-39.22-2.92c-15.14-0.8-30.27-1.53-45.42-1.13
			c-17.83,0.47-35.62,1.62-53.41,3.25c-36.55,3.36-72.49,9.93-107.9,19.4c-28.25,7.56-55.9,16.88-82.82,28.37
			c-21.81,9.31-43.05,19.67-63.27,32.08c0-5.45,0-10.91,0-16.36c23.2-13.69,47.52-25.07,72.58-34.84
			c32.43-12.64,65.67-22.62,99.71-30.01c14.66-3.18,29.38-5.98,44.19-8.18c12.94-1.92,25.97-3.36,39.01-4.65
			c26.67-2.62,53.39-3.04,80.13-2.65c14.77,0.22,29.49,1.46,44.22,2.62c30.65,2.43,60.88,7.48,90.93,13.75
			c21.97,4.59,43.7,10.2,65.25,16.5c26.92,7.86,53.44,16.93,79.79,26.47c24.68,8.94,49.15,18.48,73.59,28.07
			c36.99,14.52,74.03,28.96,111.93,40.99c25.91,8.22,52.21,15.03,79.07,19.37c16.33,2.64,32.8,3.79,49.34,4.65
			c15.54,0.81,31-0.27,46.49-0.48c16.17-0.22,32.35-1.4,48.48-2.75c20.69-1.73,41.28-4.4,61.81-7.54
			c39.81-6.08,78.8-15.49,116.76-28.9c32.81-11.58,64.14-26.28,93.3-45.44c18.66-12.26,36.06-26.03,51.53-42.17
			c6.48-6.76,12.12-14.18,17.74-21.64C1365.93,471.44,1365.93,476.18,1365.93,480.92z"/>
		<path class="st1" d="M964.74,675.2c13-0.53,26.04-0.7,39.01-1.67c19.19-1.44,38.32-3.54,57.42-6.02
			c27.46-3.56,54.52-8.99,81.29-15.91c38.87-10.05,76.24-24.1,111.67-43.04c25.66-13.72,49.59-29.99,71.22-49.57
			c14.99-13.57,28.48-28.41,39.46-45.45c0.31-0.48,0.74-0.88,1.12-1.32c0,53.59-0.02,107.17,0.07,160.76c0,2.44-0.48,2.91-2.91,2.91
			c-132.79-0.08-265.58-0.07-398.38-0.07c-0.24-0.15-0.31-0.29-0.22-0.43C964.57,675.26,964.66,675.2,964.74,675.2z"/>
		<path class="st4" d="M929.11,675.15c8.56,0.01,17.12,0.01,25.69,0.02c0.2,0.16,0.26,0.31,0.18,0.45c-0.08,0.13-0.15,0.2-0.23,0.2
			c-8.54,0-17.07,0-25.61,0c-0.23-0.14-0.31-0.28-0.24-0.44C928.97,675.23,929.04,675.15,929.11,675.15z"/>
		<path class="st5" d="M954.75,675.82c0-0.22,0.02-0.44,0.05-0.65c3.32,0.01,6.63,0.02,9.95,0.03c-0.02,0.21-0.03,0.41-0.03,0.62
			C961.39,675.82,958.07,675.82,954.75,675.82z"/>
		<path class="st6" d="M929.11,675.15c0.02,0.22,0.03,0.45,0.03,0.67c-2.61,0-5.22,0-7.83,0c0-0.21-0.01-0.42-0.04-0.63
			C923.89,675.17,926.5,675.16,929.11,675.15z"/>
	</g>
</g>
</svg>
