<svg id="Camada_1" data-name="Camada 1" xmlns="http://www.w3.org/2000/svg" viewBox="0 0 1608.18 766.97"><defs><style>.cls-1{fill:#52849d;}.cls-2{fill:#eba9ad;}.cls-3{fill:#c0dae7;}.cls-4{fill:#9da7ec;}</style></defs><title>background-mobile</title><g id="Background-mobile"><g id="Grupo_51" data-name="Grupo 51"><path id="Retângulo_76" data-name="Retângulo 76" class="cls-1" d="M-171,855.41l296.48-80.16-16.45,270.6-310.15,66.68Z" transform="translate(249.17 -638.02)"/><path id="Retângulo_77" data-name="Retângulo 77" class="cls-2" d="M-207,930.25,89.49,850.09,73,1120.69l-310.15,66.68Z" transform="translate(249.17 -638.02)"/><path id="Retângulo_78" data-name="Retângulo 78" class="cls-3" d="M-171,1024.07l296.48-80.16L109,1214.51l-310.15,66.68Z" transform="translate(249.17 -638.02)"/><path id="Retângulo_79" data-name="Retângulo 79" class="cls-1" d="M1062.53,718.18,1359,638l-16.45,270.6-310.15,66.67Z" transform="translate(249.17 -638.02)"/><path id="Retângulo_80" data-name="Retângulo 80" class="cls-2" d="M1026.5,793,1323,712.86l-16.45,270.6-310.15,66.67Z" transform="translate(249.17 -638.02)"/><path id="Retângulo_81" data-name="Retângulo 81" class="cls-3" d="M1062.49,886.84,1359,806.68l-16.45,270.6L1032.37,1144Z" transform="translate(249.17 -638.02)"/><path id="Retângulo_82" data-name="Retângulo 82" class="cls-4" d="M1026.45,980.64l296.48-80.16-16.45,270.6-310.15,66.68Z" transform="translate(249.17 -638.02)"/><path id="Retângulo_75" data-name="Retângulo 75" class="cls-4" d="M-219,1147.89l296.48-80.16L61,1338.33-249.17,1405Z" transform="translate(249.17 -638.02)"/></g></g></svg>