<svg xmlns="http://www.w3.org/2000/svg" viewBox="0 0 769.93 963"><defs><style>.cls-1{fill:#fff;}.cls-2{fill:#fcfcfc;}</style></defs><title>Ativo 1</title><g id="Camada_2" data-name="Camada 2"><g id="Camada_1-2" data-name="Camada 1"><path class="cls-1" d="M482.87,441.61c-55-48.16-92.17-90.8-112.8-127.95S339.8,240.75,339.8,205c0-37.14,12.38-66,38.52-86.67C399,103.18,425.1,94.92,454,94.92a162.55,162.55,0,0,1,66,13.76c37.14,15.13,61.91,37.15,77,66,1.38,6.89,2.75,9.64,4.13,9.64h64.65c-1.37-26.14-13.75-53.66-34.39-82.54-17.88-26.15-46.77-48.15-86.67-67.42C492.5,11,433.35,0,367.32,0,266.89,0,181.59,24.76,108.68,72.91c-61.9,44-92.17,97.68-92.17,161,0,53.65,16.51,104.56,50.9,152.71q24.77,39.19,127.94,132.07c52.28,48.15,88,88,105.93,119.68q33,55.73,33,111.43c0,45.4-17.89,82.55-52.28,111.43-26.14,19.27-55,28.9-85.29,28.9q-49.53,0-82.55-28.9c39.9,0,72.92-12.38,99.06-35.76,24.76-26.14,37.14-55,37.14-89.42,0-35.77-13.76-67.41-39.9-93.55-26.13-20.64-53.65-31.64-85.29-31.64-33,0-60.53,9.62-83.92,30.26C13.76,670,0,707.12,0,753.89c0,78.42,42.65,137.57,127.94,174.72C181.59,952,242.12,963,306.78,963c100.43,0,184.35-22,251.76-64.66q43.34-22.7,66-57.78C650.71,806.17,663.1,769,663.1,729.13c0-52.28-16.51-103.18-49.53-151.33C594.31,548.91,550.29,503.51,482.87,441.61Z"/><path class="cls-2" d="M720.05,412.1c-.84,0-1.65.12-2.48.16v-1.07a49.79,49.79,0,0,0-63.87-74l.21.25c-.57-.14-1.14-.24-1.72-.33a95.52,95.52,0,1,0-187.51,36.51l.88-.17a32.13,32.13,0,0,0-1.8,4.55c22.13,17.67,44.16,36.54,65,56.58q8.94,8.58,17.58,17.44c1.31,1.35,2.56,2.74,3.86,4.1q6.51,6.81,12.81,13.77c2,2.18,3.86,4.4,5.78,6.61q5.22,6,10.25,12.08c2,2.38,3.88,4.78,5.79,7.19,4.5,5.68,9,11.39,13.15,17.23H720.94a32.51,32.51,0,0,0,14.49-3.59,49.87,49.87,0,0,0-15.38-97.31Z"/></g></g></svg>