<svg xmlns="http://www.w3.org/2000/svg" width="144.033" height="65.074" viewBox="0 0 144.033 65.074">
  <g id="Grupo_13" data-name="Grupo 13" transform="translate(-315.466 -197.693)">
    <g id="Grupo_12" data-name="Grupo 12" transform="translate(315.466 201.026)">
      <path id="Caminho_31" data-name="Caminho 31" d="M321.214,265.469c-3.832-1.669-5.748-4.327-5.748-7.85a7.014,7.014,0,0,1,1.855-5.069,5.444,5.444,0,0,1,3.77-1.359,6,6,0,0,1,3.832,1.421,5.8,5.8,0,0,1,1.792,4.2,5.61,5.61,0,0,1-1.669,4.018,6.443,6.443,0,0,1-4.449,1.607,5.422,5.422,0,0,0,3.707,1.3,6.37,6.37,0,0,0,3.833-1.3,6.268,6.268,0,0,0,2.349-5.006A9.745,9.745,0,0,0,329,252.428a25.205,25.205,0,0,0-4.758-5.378,37.474,37.474,0,0,1-5.748-5.935,11.57,11.57,0,0,1-2.288-6.86c0-2.844,1.36-5.254,4.141-7.232a20.528,20.528,0,0,1,11.62-3.275,19.316,19.316,0,0,1,7.974,1.545,9.618,9.618,0,0,1,3.894,3.029,7.264,7.264,0,0,1,1.544,3.708h-2.905c-.061,0-.123-.123-.185-.434a6.408,6.408,0,0,0-3.461-2.965,7.286,7.286,0,0,0-2.966-.619,5.691,5.691,0,0,0-3.4,1.051,4.656,4.656,0,0,0-1.731,3.894,9.9,9.9,0,0,0,1.36,4.883,23.246,23.246,0,0,0,5.068,5.749,42.638,42.638,0,0,1,5.872,6.118,11.887,11.887,0,0,1,2.226,6.8,8.073,8.073,0,0,1-1.731,5.007,7.659,7.659,0,0,1-2.967,2.6,20.771,20.771,0,0,1-11.311,2.905A20.036,20.036,0,0,1,321.214,265.469Z" transform="translate(-315.466 -205.515)" fill="#eba9ad"/>
      <path id="Caminho_32" data-name="Caminho 32" d="M393.842,262.753c-2.863,0-5.6-1.522-8.165-4.508a22.289,22.289,0,0,1-1.644-2.313l-7.554-13.4-.3-.062v20.284H361.192V201.72h7.554a7.309,7.309,0,0,1,4.811,1.828,7.508,7.508,0,0,1,2.62,5.664V239.3a10.573,10.573,0,0,0,2.376.305,15.415,15.415,0,0,0,10.964-5.361,5.061,5.061,0,0,1-1.583-.425,6.943,6.943,0,0,1-4.021-3.838,7.422,7.422,0,0,1-.548-2.8,7.119,7.119,0,0,1,2.5-5.421,7.107,7.107,0,0,1,9.808.547,8.231,8.231,0,0,1,1.949,5.422,13.936,13.936,0,0,1-1.89,6.823,14.76,14.76,0,0,1-5.542,5.724L402.8,262.753Z" transform="translate(-323.344 -201.72)" fill="#eba9ad"/>
      <path id="Caminho_33" data-name="Caminho 33" d="M446.613,266.061a12.3,12.3,0,0,1-3.229-8.463V226.483q-4.254-2.535-11.537-2.539a26.062,26.062,0,0,0-8.953,1.218,11.851,11.851,0,0,0-6.031,4.385,8.633,8.633,0,0,0-1.524,4.812,6.488,6.488,0,0,0,2.254,5.116A6.231,6.231,0,0,0,421.736,241a6.691,6.691,0,0,0,5-2.254,6.8,6.8,0,0,0,1.766-4.507,5.421,5.421,0,0,0-.853-2.864,5.967,5.967,0,0,0-2.741-2.741,15.773,15.773,0,0,1,4.2-.671,6.264,6.264,0,0,1,4.326,1.4,5.2,5.2,0,0,1,1.461,3.961,9.893,9.893,0,0,1-.182,2.314c-.67,2.5-2.923,4.264-6.822,5.239-5.544,1.036-9.686,3.472-12.3,7.31a11.01,11.01,0,0,0-1.949,5.969,13.2,13.2,0,0,0,4.081,9.807,10.64,10.64,0,0,0,7.248,2.8c3.655,0,7.127-1.645,10.476-5a8.235,8.235,0,0,0,1.889,2.742,7.2,7.2,0,0,0,5.056,2.07h4.78C446.981,266.41,446.793,266.246,446.613,266.061Zm-11.721-14.22a15,15,0,0,1-2.5,8.589c-1.279,1.706-2.436,2.558-3.592,2.558a2.269,2.269,0,0,1-1.95-1.157,8.063,8.063,0,0,1-1.1-4.385v-3.9a9.319,9.319,0,0,1,2.741-7.188,21.493,21.493,0,0,1,2.132-1.645c2.314-1.522,3.715-2.863,4.263-4.081Z" transform="translate(-332.38 -205.549)" fill="#eba9ad"/>
      <path id="Caminho_34" data-name="Caminho 34" d="M480.909,253a18.3,18.3,0,0,1-3.533,6.456,4.072,4.072,0,0,1-2.985,1.583c-2.254,0-3.412-1.828-3.412-5.543V232.6a7.209,7.209,0,0,0-.973-3.96,13.783,13.783,0,0,0-1.1-1.523,7.675,7.675,0,0,0-5.421-2.314h-7.492v30.638a11.762,11.762,0,0,0,3.23,8.224,12.179,12.179,0,0,0,8.832,3.776c4.143,0,7.8-1.827,10.9-5.542a28.543,28.543,0,0,0,4.751-8.833A19.594,19.594,0,0,0,480.909,253Z" transform="translate(-339.678 -205.697)" fill="#eba9ad"/>
      <path id="Caminho_35" data-name="Caminho 35" d="M439.522,224.528l7.968.187-.008,4.077" transform="translate(-336.84 -205.65)" fill="none" stroke="#eba9ad" stroke-miterlimit="10" stroke-width="1"/>
      <path id="Caminho_36" data-name="Caminho 36" d="M444.94,226.565c.531-.354-.354,0,0-.177h.709a7.671,7.671,0,0,1-.886-.177h1.594c.354,0,.177.177.354.177h.176c.177-.177-.176-.177.354-.177v.531" transform="translate(-337.743 -205.909)" fill="none" stroke="#eba9ad" stroke-miterlimit="10" stroke-width="1"/>
    </g>
    <path id="Caminho_37" data-name="Caminho 37" d="M473.934,208.628a2.644,2.644,0,0,0-2.637-2.684.181.181,0,0,0-.051,0v-.089c0-.449.5-1.009.5-1.618a2.809,2.809,0,0,0-2.707-2.8c-.485,0-.962.235-1.354.235h0c-.022,0,.007.143-.014.154,0-.01.039.1.039.09v0c0-.006-.055-.012-.057-.017a5.164,5.164,0,1,0-10.143,1.952c-.072,0-.148-.007-.223-.007a3.735,3.735,0,0,0-.871,7.368,2.161,2.161,0,0,0,.734.137c.287.016.574.142.861.132.018,0,.036.11.055.11H471.3a1.818,1.818,0,0,0,.785-.3A2.823,2.823,0,0,0,473.934,208.628Zm-16.324-4.777,0,0a.058.058,0,0,1-.017,0Z" transform="translate(-23.79)" fill="#90cbeb"/>
  </g>
</svg>
