<svg id="Camada_1" data-name="Camada 1" xmlns="http://www.w3.org/2000/svg" viewBox="0 0 1131.51 638.04"><defs><style>.cls-1{fill:#9da7ec;}.cls-2{fill:#90cbeb;}.cls-3{fill:#fff;}</style></defs><title>background-mobile-menu</title><g id="Background-mobile"><path id="Caminho_90" data-name="Caminho 90" class="cls-1" d="M-1.69,634.42S125,414.81,407.86,414.87c130.67,0,315.63,191.6,454.69,219.74,46.07,9.32,120.64.11,174.63-43.17,52.6-42.17,84.7-118.39,84.7-118.39l7.84-58L1129.81.16-1.54-.1Z" transform="translate(1.69 0.13)"/><path id="Caminho_89" data-name="Caminho 89" class="cls-2" d="M-1.68,594.81S125,388.91,407.86,389c130.68,0,315.64,179.65,454.69,206,46.07,8.74,120.64.11,174.63-40.49,52.6-39.54,84.7-111,84.7-111l7.84-54.41.09-389L-1.54-.13Z" transform="translate(1.69 0.13)"/><path id="Caminho_88" data-name="Caminho 88" class="cls-3" d="M-1.67,555.74S125,363.37,407.87,363.43c130.67,0,315.63,167.85,454.69,192.51,46.07,8.17,120.64.1,174.63-37.81,52.6-36.94,84.7-103.71,84.7-103.71l7.84-50.82L1129.81.17-1.54-.1Z" transform="translate(1.69 0.13)"/><path id="Caminho_85" data-name="Caminho 85" class="cls-2" d="M-1.66,516.8S125,337.9,407.88,338c130.67,0,315.64,156.1,454.69,179,46.07,7.59,120.64.1,174.63-35.16,52.6-34.35,84.7-96.44,84.7-96.44l7.84-47.28.08-338L-1.54-.12Z" transform="translate(1.69 0.13)"/></g></svg>