<?xml version="1.0" encoding="utf-8"?>
<!-- Generator: Adobe Illustrator 24.0.1, SVG Export Plug-In . SVG Version: 6.00 Build 0)  -->
<svg version="1.1" id="Camada_1" xmlns="http://www.w3.org/2000/svg" xmlns:xlink="http://www.w3.org/1999/xlink" x="0px" y="0px"
	 viewBox="0 0 1125 2436" style="enable-background:new 0 0 1125 2436;" xml:space="preserve">
<style type="text/css">
	.st0{fill:#9DA7EC;}
	.st1{fill:#90CBEB;}
	.st2{fill:#FFFFFF;}
	.st3{fill:#52849D;}
	.st4{fill:#EBA9AD;}
	.st5{fill:#C0DAE7;}
</style>
<g id="Background-mobile" transform="translate(82.402)">
	<path id="Caminho_90" class="st0" d="M-84.09,634.42c0,0,126.7-219.61,409.55-219.55c130.67,0.03,315.63,191.6,454.69,219.74
		c46.07,9.32,120.64,0.11,174.63-43.17c52.6-42.17,84.7-118.39,84.7-118.39l7.84-58.01l0.09-414.88L-83.94-0.1L-84.09,634.42z"/>
	<path id="Caminho_89" class="st1" d="M-84.08,594.81c0,0,126.69-205.9,409.54-205.84C456.14,389,641.1,568.62,780.15,595
		c46.07,8.74,120.64,0.11,174.63-40.49c52.6-39.54,84.7-111,84.7-111l7.84-54.41l0.09-388.98L-83.94-0.13L-84.08,594.81z"/>
	<path id="Caminho_88" class="st2" d="M-84.07,555.74c0,0,126.69-192.37,409.54-192.31c130.67,0.03,315.63,167.85,454.69,192.51
		c46.07,8.17,120.64,0.1,174.63-37.81c52.6-36.94,84.7-103.71,84.7-103.71l7.84-50.82l0.08-363.43L-83.94-0.1L-84.07,555.74z"/>
	<path id="Caminho_85" class="st1" d="M-84.06,516.8c0,0,126.69-178.9,409.54-178.83c130.67,0.03,315.64,156.1,454.69,179.03
		c46.07,7.59,120.64,0.1,174.63-35.16c52.6-34.35,84.7-96.44,84.7-96.44l7.84-47.28l0.08-337.97L-83.94-0.12L-84.06,516.8z"/>
	<g id="Grupo_51">
		<path id="Retângulo_76" class="st3" d="M-253.36,855.41l296.48-80.16l-16.45,270.6l-310.15,66.68L-253.36,855.41z"/>
		<path id="Retângulo_77" class="st4" d="M-289.39,930.25L7.09,850.09l-16.45,270.6l-310.15,66.68L-289.39,930.25z"/>
		<path id="Retângulo_78" class="st5" d="M-253.4,1024.07l296.48-80.16l-16.45,270.6l-310.15,66.68L-253.4,1024.07z"/>
		<path id="Retângulo_79" class="st3" d="M980.13,718.18l296.48-80.16l-16.45,270.6l-310.15,66.67L980.13,718.18z"/>
		<path id="Retângulo_80" class="st4" d="M944.1,793.02l296.48-80.16l-16.45,270.6l-310.15,66.67L944.1,793.02z"/>
		<path id="Retângulo_81" class="st5" d="M980.09,886.84l296.48-80.16l-16.45,270.6l-310.15,66.68L980.09,886.84z"/>
		<path id="Retângulo_82" class="st0" d="M944.05,980.64l296.48-80.16l-16.45,270.6l-310.15,66.68L944.05,980.64z"/>
		<path id="Retângulo_75" class="st0" d="M-301.45,1147.89l296.48-80.16l-16.45,270.6l-310.15,66.66L-301.45,1147.89z"/>
	</g>
</g>
</svg>
