<svg xmlns="http://www.w3.org/2000/svg" width="95" height="95" viewBox="0 0 95 95">
  <g id="Bot찾o_whatsapp" data-name="Bot찾o whatsapp" transform="translate(-1686 -891)">
    <rect id="Ret창ngulo_83" data-name="Ret창ngulo 83" width="95" height="95" rx="8" transform="translate(1686 891)" fill="#52849d"/>
    <g id="whatsapp_white_24dp" transform="translate(1699 904)">
      <g id="Grupo_39" data-name="Grupo 39" transform="translate(6.027 5.88)">
        <g id="Grupo_38" data-name="Grupo 38">
          <g id="Grupo_37" data-name="Grupo 37">
            <path id="Caminho_93" data-name="Caminho 93" d="M52.03,10.555A28.859,28.859,0,0,0,31.42,2,29.155,29.155,0,0,0,6.166,45.688L2.05,60.8l15.435-4.057A29.143,29.143,0,0,0,31.42,60.3h0A29.146,29.146,0,0,0,52.03,10.555ZM31.42,55.361h0A24.29,24.29,0,0,1,19.072,51.98l-.882-.529L9.018,53.861l2.44-8.938-.588-.911A24.227,24.227,0,0,1,31.391,6.91a24.241,24.241,0,0,1,24.2,24.255A24.153,24.153,0,0,1,31.42,55.361ZM44.709,37.25c-.735-.353-4.322-2.117-4.969-2.381-.676-.235-1.147-.353-1.646.353-.5.735-1.882,2.381-2.293,2.852-.412.5-.853.559-1.588.176a19.59,19.59,0,0,1-5.851-3.616,22.245,22.245,0,0,1-4.057-5.057c-.412-.735-.059-1.117.323-1.5.323-.323.735-.853,1.088-1.264a5.1,5.1,0,0,0,.735-1.205,1.349,1.349,0,0,0-.059-1.264c-.176-.353-1.646-3.94-2.234-5.41-.588-1.411-1.205-1.235-1.646-1.264H21.1a2.641,2.641,0,0,0-1.94.911,8.293,8.293,0,0,0-2.528,6.086c0,3.587,2.617,7.056,2.969,7.526.353.5,5.145,7.85,12.436,11a35.583,35.583,0,0,0,4.145,1.529,10.072,10.072,0,0,0,4.586.294c1.411-.206,4.322-1.764,4.91-3.469a5.745,5.745,0,0,0,.412-3.469C45.885,37.75,45.444,37.6,44.709,37.25Z" transform="translate(-2.05 -2)" fill="#fff" stroke="#fff" stroke-width="1.5"/>
          </g>
        </g>
      </g>
    </g>
  </g>
</svg>
