<svg xmlns="http://www.w3.org/2000/svg" viewBox="0 0 117.14 86.57"><defs><style>.cls-1{fill:#fff;}</style></defs><g id="Camada_2" data-name="Camada 2"><g id="Camada_1-2" data-name="Camada 1"><path class="cls-1" d="M8.06,67.17C2.69,64.83,0,61.1,0,56.16a9.84,9.84,0,0,1,2.6-7.1,7.64,7.64,0,0,1,5.29-1.91,8.42,8.42,0,0,1,5.37,2A8.13,8.13,0,0,1,15.77,55a7.88,7.88,0,0,1-2.34,5.63,9,9,0,0,1-6.24,2.25,7.59,7.59,0,0,0,5.2,1.82,8.91,8.91,0,0,0,5.38-1.82,8.81,8.81,0,0,0,3.29-7,13.64,13.64,0,0,0-2.08-7c-1.13-2-3.38-4.5-6.67-7.54Q5.8,35.49,4.25,33A16.22,16.22,0,0,1,1,23.41C1,19.42,3,16,6.85,13.27a28.7,28.7,0,0,1,16.29-4.6,27.17,27.17,0,0,1,11.18,2.17,13.48,13.48,0,0,1,5.46,4.25,10.09,10.09,0,0,1,2.16,5.2H37.87c-.09,0-.17-.18-.26-.61a9,9,0,0,0-4.85-4.16,10.19,10.19,0,0,0-4.16-.87,8,8,0,0,0-4.77,1.48,6.54,6.54,0,0,0-2.42,5.46,13.88,13.88,0,0,0,1.9,6.84,32.5,32.5,0,0,0,7.11,8.06c4.24,3.9,7,6.76,8.23,8.58a16.66,16.66,0,0,1,3.12,9.53,11.28,11.28,0,0,1-2.43,7,10.65,10.65,0,0,1-4.16,3.64c-4.24,2.69-9.53,4.08-15.85,4.08A28.14,28.14,0,0,1,8.06,67.17Z"/><path class="cls-1" d="M48.5,37.77a3.15,3.15,0,0,0-3.14-3.14H45.2v-.06a3.14,3.14,0,0,0-4-4.67v0l-.11,0A6,6,0,0,0,29.15,31a6.08,6.08,0,0,0,.12,1.22h.06a1.69,1.69,0,0,0-.12.28c1.4,1.12,2.79,2.31,4.1,3.57.38.36.75.72,1.11,1.1l.24.26c.28.28.55.57.81.86l.36.42c.22.25.44.5.65.76l.36.45c.29.36.57.72.83,1.09h7.74a2.08,2.08,0,0,0,1-.26A3.13,3.13,0,0,0,48.5,37.77Z"/><path class="cls-1" d="M100.86,20.07V55.28l-.67,1.13c-1.39,2.19-2.85,3.26-4.51,3.26-2.46,0-3.72-2.13-3.72-6.32,0-22.19,0-33.28-.07-33.28H85.05a8.09,8.09,0,0,0-1-.07,7.54,7.54,0,0,0-2.43.39A8.39,8.39,0,0,0,78,22.46a8,8,0,0,0-2.39,5.71V40.52a13.81,13.81,0,0,1-4.57.81A11.51,11.51,0,0,1,68.45,41V8.17A8.21,8.21,0,0,0,65.59,2a8,8,0,0,0-5.25-2H52.1V66.58H68.45V44.45l.33.07L76.36,58a12.13,12.13,0,0,0,1.78,3.3,10,10,0,0,0,3.52,3.26,13.39,13.39,0,0,0,7.11,2.06c4.65,0,8.7-2.06,12.09-6.18v5c0,4.12-.33,7.11-1.06,9-1.27,3.52-4.06,5.78-8.44,6.77a11.46,11.46,0,0,1-2.79.47,6.1,6.1,0,0,0,2.52-2.53,6.87,6.87,0,0,0,1.13-3.59,7.37,7.37,0,0,0-7.31-7.24A6.73,6.73,0,0,0,80,70.36a6.88,6.88,0,0,0-2.13,5c0,4.06,2.26,7.18,6.78,9.24a23.91,23.91,0,0,0,9.57,1.92A25.78,25.78,0,0,0,107.57,83q9.57-5.68,9.57-18.34V20.07Z"/></g></g></svg>